<?xml version="1.0" encoding="UTF-8" standalone="no"?>
<!DOCTYPE svg PUBLIC "-//W3C//DTD SVG 1.1//EN"
 "http://www.w3.org/Graphics/SVG/1.1/DTD/svg11.dtd">
<!-- Generated by graphviz version 13.1.0 (20250701.0955)
 -->
<!-- Title: interface/driver_as5600_interface.h Pages: 1 -->
<svg width="488pt" height="176pt"
 viewBox="0.00 0.00 488.00 176.00" xmlns="http://www.w3.org/2000/svg" xmlns:xlink="http://www.w3.org/1999/xlink">
<g id="graph0" class="graph" transform="scale(1 1) rotate(0) translate(4 172)">
<title>interface/driver_as5600_interface.h</title>
<!-- Node1 -->
<g id="Node000001" class="node">
<title>Node1</title>
<g id="a_Node000001"><a xlink:title="driver as5600 interface header file">
<polygon fill="#999999" stroke="#666666" points="313.88,-168 196.62,-168 196.62,-136 313.88,-136 313.88,-168"/>
<text xml:space="preserve" text-anchor="start" x="204.62" y="-154.5" font-family="Helvetica,sans-Serif" font-size="10.00">interface/driver_as5600</text>
<text xml:space="preserve" text-anchor="middle" x="255.25" y="-142.5" font-family="Helvetica,sans-Serif" font-size="10.00">_interface.h</text>
</a>
</g>
</g>
<!-- Node2 -->
<g id="Node000002" class="node">
<title>Node2</title>
<g id="a_Node000002"><a xlink:href="driver__as5600__basic_8h.html" target="_top" xlink:title="driver as5600 basic header file">
<polygon fill="white" stroke="#666666" points="116.5,-100 0,-100 0,-68 116.5,-68 116.5,-100"/>
<text xml:space="preserve" text-anchor="start" x="8" y="-86.5" font-family="Helvetica,sans-Serif" font-size="10.00">example/driver_as5600</text>
<text xml:space="preserve" text-anchor="middle" x="58.25" y="-74.5" font-family="Helvetica,sans-Serif" font-size="10.00">_basic.h</text>
</a>
</g>
</g>
<!-- Node1&#45;&gt;Node2 -->
<g id="edge1_Node000001_Node000002" class="edge">
<title>Node1&#45;&gt;Node2</title>
<g id="a_edge1_Node000001_Node000002"><a xlink:title=" ">
<path fill="none" stroke="#63b8ff" d="M198.39,-131.95C168.59,-121.97 132.56,-109.89 104.49,-100.49"/>
<polygon fill="#63b8ff" stroke="#63b8ff" points="197.03,-135.19 207.63,-135.05 199.26,-128.55 197.03,-135.19"/>
</a>
</g>
</g>
<!-- Node4 -->
<g id="Node000004" class="node">
<title>Node4</title>
<g id="a_Node000004"><a xlink:href="driver__as5600__interface__template_8c.html" target="_top" xlink:title="driver as5600 interface template source file">
<polygon fill="white" stroke="#666666" points="251.88,-100 134.62,-100 134.62,-68 251.88,-68 251.88,-100"/>
<text xml:space="preserve" text-anchor="start" x="142.62" y="-86.5" font-family="Helvetica,sans-Serif" font-size="10.00">interface/driver_as5600</text>
<text xml:space="preserve" text-anchor="middle" x="193.25" y="-74.5" font-family="Helvetica,sans-Serif" font-size="10.00">_interface_template.c</text>
</a>
</g>
</g>
<!-- Node1&#45;&gt;Node4 -->
<g id="edge3_Node000001_Node000004" class="edge">
<title>Node1&#45;&gt;Node4</title>
<g id="a_edge3_Node000001_Node000004"><a xlink:title=" ">
<path fill="none" stroke="#63b8ff" d="M233.11,-127.43C224.6,-118.38 215.13,-108.29 207.55,-100.22"/>
<polygon fill="#63b8ff" stroke="#63b8ff" points="230.44,-129.7 239.83,-134.59 235.54,-124.9 230.44,-129.7"/>
</a>
</g>
</g>
<!-- Node5 -->
<g id="Node000005" class="node">
<title>Node5</title>
<g id="a_Node000005"><a xlink:href="driver__as5600__read__test_8h.html" target="_top" xlink:title="driver as5600 read test header file">
<polygon fill="white" stroke="#666666" points="366.38,-100 270.12,-100 270.12,-68 366.38,-68 366.38,-100"/>
<text xml:space="preserve" text-anchor="start" x="278.12" y="-86.5" font-family="Helvetica,sans-Serif" font-size="10.00">test/driver_as5600</text>
<text xml:space="preserve" text-anchor="middle" x="318.25" y="-74.5" font-family="Helvetica,sans-Serif" font-size="10.00">_read_test.h</text>
</a>
</g>
</g>
<!-- Node1&#45;&gt;Node5 -->
<g id="edge4_Node000001_Node000005" class="edge">
<title>Node1&#45;&gt;Node5</title>
<g id="a_edge4_Node000001_Node000005"><a xlink:title=" ">
<path fill="none" stroke="#63b8ff" d="M277.75,-127.43C286.39,-118.38 296.02,-108.29 303.72,-100.22"/>
<polygon fill="#63b8ff" stroke="#63b8ff" points="275.28,-124.95 270.91,-134.6 280.34,-129.78 275.28,-124.95"/>
</a>
</g>
</g>
<!-- Node7 -->
<g id="Node000007" class="node">
<title>Node7</title>
<g id="a_Node000007"><a xlink:href="driver__as5600__register__test_8h.html" target="_top" xlink:title="driver as5600 register test header file">
<polygon fill="white" stroke="#666666" points="480.38,-100 384.12,-100 384.12,-68 480.38,-68 480.38,-100"/>
<text xml:space="preserve" text-anchor="start" x="392.12" y="-86.5" font-family="Helvetica,sans-Serif" font-size="10.00">test/driver_as5600</text>
<text xml:space="preserve" text-anchor="middle" x="432.25" y="-74.5" font-family="Helvetica,sans-Serif" font-size="10.00">_register_test.h</text>
</a>
</g>
</g>
<!-- Node1&#45;&gt;Node7 -->
<g id="edge6_Node000001_Node000007" class="edge">
<title>Node1&#45;&gt;Node7</title>
<g id="a_edge6_Node000001_Node000007"><a xlink:title=" ">
<path fill="none" stroke="#63b8ff" d="M307.4,-131.56C333.96,-121.65 365.82,-109.77 390.71,-100.49"/>
<polygon fill="#63b8ff" stroke="#63b8ff" points="306.31,-128.22 298.17,-135 308.76,-134.78 306.31,-128.22"/>
</a>
</g>
</g>
<!-- Node3 -->
<g id="Node000003" class="node">
<title>Node3</title>
<g id="a_Node000003"><a xlink:href="driver__as5600__basic_8c.html" target="_top" xlink:title="driver as5600 basic source file">
<polygon fill="white" stroke="#666666" points="116.5,-32 0,-32 0,0 116.5,0 116.5,-32"/>
<text xml:space="preserve" text-anchor="start" x="8" y="-18.5" font-family="Helvetica,sans-Serif" font-size="10.00">example/driver_as5600</text>
<text xml:space="preserve" text-anchor="middle" x="58.25" y="-6.5" font-family="Helvetica,sans-Serif" font-size="10.00">_basic.c</text>
</a>
</g>
</g>
<!-- Node2&#45;&gt;Node3 -->
<g id="edge2_Node000002_Node000003" class="edge">
<title>Node2&#45;&gt;Node3</title>
<g id="a_edge2_Node000002_Node000003"><a xlink:title=" ">
<path fill="none" stroke="#63b8ff" d="M58.25,-56.31C58.25,-48.12 58.25,-39.38 58.25,-32.22"/>
<polygon fill="#63b8ff" stroke="#63b8ff" points="54.75,-56.18 58.25,-66.18 61.75,-56.18 54.75,-56.18"/>
</a>
</g>
</g>
<!-- Node6 -->
<g id="Node000006" class="node">
<title>Node6</title>
<g id="a_Node000006"><a xlink:href="driver__as5600__read__test_8c.html" target="_top" xlink:title="driver as5600 read test source file">
<polygon fill="white" stroke="#666666" points="366.38,-32 270.12,-32 270.12,0 366.38,0 366.38,-32"/>
<text xml:space="preserve" text-anchor="start" x="278.12" y="-18.5" font-family="Helvetica,sans-Serif" font-size="10.00">test/driver_as5600</text>
<text xml:space="preserve" text-anchor="middle" x="318.25" y="-6.5" font-family="Helvetica,sans-Serif" font-size="10.00">_read_test.c</text>
</a>
</g>
</g>
<!-- Node5&#45;&gt;Node6 -->
<g id="edge5_Node000005_Node000006" class="edge">
<title>Node5&#45;&gt;Node6</title>
<g id="a_edge5_Node000005_Node000006"><a xlink:title=" ">
<path fill="none" stroke="#63b8ff" d="M318.25,-56.31C318.25,-48.12 318.25,-39.38 318.25,-32.22"/>
<polygon fill="#63b8ff" stroke="#63b8ff" points="314.75,-56.18 318.25,-66.18 321.75,-56.18 314.75,-56.18"/>
</a>
</g>
</g>
<!-- Node8 -->
<g id="Node000008" class="node">
<title>Node8</title>
<g id="a_Node000008"><a xlink:href="driver__as5600__register__test_8c.html" target="_top" xlink:title="driver as5600 register test source file">
<polygon fill="white" stroke="#666666" points="480.38,-32 384.12,-32 384.12,0 480.38,0 480.38,-32"/>
<text xml:space="preserve" text-anchor="start" x="392.12" y="-18.5" font-family="Helvetica,sans-Serif" font-size="10.00">test/driver_as5600</text>
<text xml:space="preserve" text-anchor="middle" x="432.25" y="-6.5" font-family="Helvetica,sans-Serif" font-size="10.00">_register_test.c</text>
</a>
</g>
</g>
<!-- Node7&#45;&gt;Node8 -->
<g id="edge7_Node000007_Node000008" class="edge">
<title>Node7&#45;&gt;Node8</title>
<g id="a_edge7_Node000007_Node000008"><a xlink:title=" ">
<path fill="none" stroke="#63b8ff" d="M432.25,-56.31C432.25,-48.12 432.25,-39.38 432.25,-32.22"/>
<polygon fill="#63b8ff" stroke="#63b8ff" points="428.75,-56.18 432.25,-66.18 435.75,-56.18 428.75,-56.18"/>
</a>
</g>
</g>
</g>
</svg>
