<?xml version="1.0" encoding="UTF-8" standalone="no"?>
<!DOCTYPE svg PUBLIC "-//W3C//DTD SVG 1.1//EN"
 "http://www.w3.org/Graphics/SVG/1.1/DTD/svg11.dtd">
<!-- Generated by graphviz version 13.1.0 (20250701.0955)
 -->
<!-- Title: as5600_basic_init Pages: 1 -->
<svg width="276pt" height="292pt"
 viewBox="0.00 0.00 276.00 292.00" xmlns="http://www.w3.org/2000/svg" xmlns:xlink="http://www.w3.org/1999/xlink">
<g id="graph0" class="graph" transform="scale(1 1) rotate(0) translate(4 288)">
<title>as5600_basic_init</title>
<!-- Node1 -->
<g id="Node000001" class="node">
<title>Node1</title>
<g id="a_Node000001"><a xlink:title="basic example init">
<polygon fill="#999999" stroke="#666666" points="94,-152 0,-152 0,-132 94,-132 94,-152"/>
<text xml:space="preserve" text-anchor="middle" x="47" y="-138.5" font-family="Helvetica,sans-Serif" font-size="10.00">as5600_basic_init</text>
</a>
</g>
</g>
<!-- Node2 -->
<g id="Node000002" class="node">
<title>Node2</title>
<g id="a_Node000002"><a xlink:href="group__as5600__base__driver.html#gaa7a6e2d65b0ab36cf67294ea1e56089b" target="_top" xlink:title="initialize the chip">
<polygon fill="white" stroke="#666666" points="231.5,-284 166,-284 166,-264 231.5,-264 231.5,-284"/>
<text xml:space="preserve" text-anchor="middle" x="198.75" y="-270.5" font-family="Helvetica,sans-Serif" font-size="10.00">as5600_init</text>
</a>
</g>
</g>
<!-- Node1&#45;&gt;Node2 -->
<g id="edge1_Node000001_Node000002" class="edge">
<title>Node1&#45;&gt;Node2</title>
<g id="a_edge1_Node000001_Node000002"><a xlink:title=" ">
<path fill="none" stroke="#63b8ff" d="M52.5,-152.21C62.82,-174.44 90.41,-227.44 130,-255 137.4,-260.15 146.17,-263.91 154.9,-266.66"/>
<polygon fill="#63b8ff" stroke="#63b8ff" points="153.8,-269.99 164.37,-269.22 155.63,-263.23 153.8,-269.99"/>
</a>
</g>
</g>
<!-- Node3 -->
<g id="Node000003" class="node">
<title>Node3</title>
<g id="a_Node000003"><a xlink:href="group__as5600__interface__driver.html#gacaeaab2372380aeb2263cfd04bbeae58" target="_top" xlink:title="interface print format data">
<polygon fill="white" stroke="#666666" points="259.62,-246 137.88,-246 137.88,-214 259.62,-214 259.62,-246"/>
<text xml:space="preserve" text-anchor="start" x="145.88" y="-232.5" font-family="Helvetica,sans-Serif" font-size="10.00">as5600_interface_debug</text>
<text xml:space="preserve" text-anchor="middle" x="198.75" y="-220.5" font-family="Helvetica,sans-Serif" font-size="10.00">_print</text>
</a>
</g>
</g>
<!-- Node1&#45;&gt;Node3 -->
<g id="edge2_Node000001_Node000003" class="edge">
<title>Node1&#45;&gt;Node3</title>
<g id="a_edge2_Node000001_Node000003"><a xlink:title=" ">
<path fill="none" stroke="#63b8ff" d="M59.17,-152.37C74.28,-165.95 102.49,-189.82 130,-205 132.36,-206.3 134.8,-207.56 137.3,-208.78"/>
<polygon fill="#63b8ff" stroke="#63b8ff" points="135.83,-211.96 146.39,-212.9 138.72,-205.58 135.83,-211.96"/>
</a>
</g>
</g>
<!-- Node4 -->
<g id="Node000004" class="node">
<title>Node4</title>
<g id="a_Node000004"><a xlink:href="group__as5600__interface__driver.html#gab2e1d5dd024a65a6f6fed94da6d6541b" target="_top" xlink:title="interface delay ms">
<polygon fill="white" stroke="#666666" points="267.5,-196 130,-196 130,-176 267.5,-176 267.5,-196"/>
<text xml:space="preserve" text-anchor="middle" x="198.75" y="-182.5" font-family="Helvetica,sans-Serif" font-size="10.00">as5600_interface_delay_ms</text>
</a>
</g>
</g>
<!-- Node1&#45;&gt;Node4 -->
<g id="edge3_Node000001_Node000004" class="edge">
<title>Node1&#45;&gt;Node4</title>
<g id="a_edge3_Node000001_Node000004"><a xlink:title=" ">
<path fill="none" stroke="#63b8ff" d="M81.46,-152.39C96.31,-156.95 114,-162.32 130,-167 136.23,-168.82 142.8,-170.71 149.29,-172.55"/>
<polygon fill="#63b8ff" stroke="#63b8ff" points="148.05,-175.84 158.62,-175.19 149.95,-169.1 148.05,-175.84"/>
</a>
</g>
</g>
<!-- Node5 -->
<g id="Node000005" class="node">
<title>Node5</title>
<g id="a_Node000005"><a xlink:href="group__as5600__interface__driver.html#ga08026fcf3e09f57cbe40d1ed0abd0c49" target="_top" xlink:title="interface iic bus deinit">
<polygon fill="white" stroke="#666666" points="251.38,-158 146.12,-158 146.12,-126 251.38,-126 251.38,-158"/>
<text xml:space="preserve" text-anchor="start" x="154.12" y="-144.5" font-family="Helvetica,sans-Serif" font-size="10.00">as5600_interface_iic</text>
<text xml:space="preserve" text-anchor="middle" x="198.75" y="-132.5" font-family="Helvetica,sans-Serif" font-size="10.00">_deinit</text>
</a>
</g>
</g>
<!-- Node1&#45;&gt;Node5 -->
<g id="edge4_Node000001_Node000005" class="edge">
<title>Node1&#45;&gt;Node5</title>
<g id="a_edge4_Node000001_Node000005"><a xlink:title=" ">
<path fill="none" stroke="#63b8ff" d="M94.15,-142C106.91,-142 120.98,-142 134.52,-142"/>
<polygon fill="#63b8ff" stroke="#63b8ff" points="134.22,-145.5 144.22,-142 134.22,-138.5 134.22,-145.5"/>
</a>
</g>
</g>
<!-- Node6 -->
<g id="Node000006" class="node">
<title>Node6</title>
<g id="a_Node000006"><a xlink:href="group__as5600__interface__driver.html#ga29dd0e1b544733a86bcb33bb04693694" target="_top" xlink:title="interface iic bus init">
<polygon fill="white" stroke="#666666" points="260.38,-108 137.12,-108 137.12,-88 260.38,-88 260.38,-108"/>
<text xml:space="preserve" text-anchor="middle" x="198.75" y="-94.5" font-family="Helvetica,sans-Serif" font-size="10.00">as5600_interface_iic_init</text>
</a>
</g>
</g>
<!-- Node1&#45;&gt;Node6 -->
<g id="edge5_Node000001_Node000006" class="edge">
<title>Node1&#45;&gt;Node6</title>
<g id="a_edge5_Node000001_Node000006"><a xlink:title=" ">
<path fill="none" stroke="#63b8ff" d="M81.46,-131.61C96.31,-127.05 114,-121.68 130,-117 136.23,-115.18 142.8,-113.29 149.29,-111.45"/>
<polygon fill="#63b8ff" stroke="#63b8ff" points="149.95,-114.9 158.62,-108.81 148.05,-108.16 149.95,-114.9"/>
</a>
</g>
</g>
<!-- Node7 -->
<g id="Node000007" class="node">
<title>Node7</title>
<g id="a_Node000007"><a xlink:href="group__as5600__interface__driver.html#gacaf4217816165b1ce811cbaa5ac48c91" target="_top" xlink:title="interface iic bus read">
<polygon fill="white" stroke="#666666" points="263.38,-70 134.12,-70 134.12,-50 263.38,-50 263.38,-70"/>
<text xml:space="preserve" text-anchor="middle" x="198.75" y="-56.5" font-family="Helvetica,sans-Serif" font-size="10.00">as5600_interface_iic_read</text>
</a>
</g>
</g>
<!-- Node1&#45;&gt;Node7 -->
<g id="edge6_Node000001_Node000007" class="edge">
<title>Node1&#45;&gt;Node7</title>
<g id="a_edge6_Node000001_Node000007"><a xlink:title=" ">
<path fill="none" stroke="#63b8ff" d="M58.74,-131.53C73.58,-117.62 101.75,-93.15 130,-79 133.44,-77.28 137.05,-75.7 140.75,-74.24"/>
<polygon fill="#63b8ff" stroke="#63b8ff" points="141.64,-77.64 149.88,-70.98 139.28,-71.04 141.64,-77.64"/>
</a>
</g>
</g>
<!-- Node8 -->
<g id="Node000008" class="node">
<title>Node8</title>
<g id="a_Node000008"><a xlink:href="group__as5600__interface__driver.html#gab5582d5de506cc3095509fba5add5aad" target="_top" xlink:title="interface iic bus write">
<polygon fill="white" stroke="#666666" points="251.38,-32 146.12,-32 146.12,0 251.38,0 251.38,-32"/>
<text xml:space="preserve" text-anchor="start" x="154.12" y="-18.5" font-family="Helvetica,sans-Serif" font-size="10.00">as5600_interface_iic</text>
<text xml:space="preserve" text-anchor="middle" x="198.75" y="-6.5" font-family="Helvetica,sans-Serif" font-size="10.00">_write</text>
</a>
</g>
</g>
<!-- Node1&#45;&gt;Node8 -->
<g id="edge7_Node000001_Node000008" class="edge">
<title>Node1&#45;&gt;Node8</title>
<g id="a_edge7_Node000001_Node000008"><a xlink:title=" ">
<path fill="none" stroke="#63b8ff" d="M53.83,-131.58C65.65,-111.35 94.37,-66.5 130,-41 131.99,-39.58 134.07,-38.23 136.21,-36.94"/>
<polygon fill="#63b8ff" stroke="#63b8ff" points="137.43,-40.26 144.61,-32.47 134.14,-34.08 137.43,-40.26"/>
</a>
</g>
</g>
</g>
</svg>
