<?xml version="1.0" encoding="UTF-8" standalone="no"?>
<!DOCTYPE svg PUBLIC "-//W3C//DTD SVG 1.1//EN"
 "http://www.w3.org/Graphics/SVG/1.1/DTD/svg11.dtd">
<!-- Generated by graphviz version 13.1.0 (20250701.0955)
 -->
<!-- Title: as5600_basic_read Pages: 1 -->
<svg width="266pt" height="78pt"
 viewBox="0.00 0.00 266.00 78.00" xmlns="http://www.w3.org/2000/svg" xmlns:xlink="http://www.w3.org/1999/xlink">
<g id="graph0" class="graph" transform="scale(1 1) rotate(0) translate(4 74)">
<title>as5600_basic_read</title>
<!-- Node1 -->
<g id="Node000001" class="node">
<title>Node1</title>
<g id="a_Node000001"><a xlink:title="basic example read">
<polygon fill="#999999" stroke="#666666" points="100,-42 0,-42 0,-22 100,-22 100,-42"/>
<text xml:space="preserve" text-anchor="middle" x="50" y="-28.5" font-family="Helvetica,sans-Serif" font-size="10.00">as5600_basic_read</text>
</a>
</g>
</g>
<!-- Node2 -->
<g id="Node000002" class="node">
<title>Node2</title>
<g id="a_Node000002"><a xlink:href="group__as5600__interface__driver.html#gacaeaab2372380aeb2263cfd04bbeae58" target="_top" xlink:title="interface print format data">
<polygon fill="white" stroke="#666666" points="257.75,-70 136,-70 136,-38 257.75,-38 257.75,-70"/>
<text xml:space="preserve" text-anchor="start" x="144" y="-56.5" font-family="Helvetica,sans-Serif" font-size="10.00">as5600_interface_debug</text>
<text xml:space="preserve" text-anchor="middle" x="196.88" y="-44.5" font-family="Helvetica,sans-Serif" font-size="10.00">_print</text>
</a>
</g>
</g>
<!-- Node1&#45;&gt;Node2 -->
<g id="edge1_Node000001_Node000002" class="edge">
<title>Node1&#45;&gt;Node2</title>
<g id="a_edge1_Node000001_Node000002"><a xlink:title=" ">
<path fill="none" stroke="#63b8ff" d="M100.45,-39.51C108.14,-40.68 116.22,-41.9 124.28,-43.13"/>
<polygon fill="#63b8ff" stroke="#63b8ff" points="123.71,-46.58 134.12,-44.62 124.76,-39.66 123.71,-46.58"/>
</a>
</g>
</g>
<!-- Node3 -->
<g id="Node000003" class="node">
<title>Node3</title>
<g id="a_Node000003"><a xlink:href="group__as5600__base__driver.html#ga0b795d7ede91293d133003804ec2ed55" target="_top" xlink:title="read the magnetic angle">
<polygon fill="white" stroke="#666666" points="232.62,-20 161.12,-20 161.12,0 232.62,0 232.62,-20"/>
<text xml:space="preserve" text-anchor="middle" x="196.88" y="-6.5" font-family="Helvetica,sans-Serif" font-size="10.00">as5600_read</text>
</a>
</g>
</g>
<!-- Node1&#45;&gt;Node3 -->
<g id="edge2_Node000001_Node000003" class="edge">
<title>Node1&#45;&gt;Node3</title>
<g id="a_edge2_Node000001_Node000003"><a xlink:title=" ">
<path fill="none" stroke="#63b8ff" d="M100.45,-24.49C116.42,-22.07 134.04,-19.39 149.75,-17"/>
<polygon fill="#63b8ff" stroke="#63b8ff" points="149.95,-20.51 159.31,-15.55 148.89,-13.59 149.95,-20.51"/>
</a>
</g>
</g>
</g>
</svg>
